<svg version="1.1" viewBox="0.0 0.0 460.0 285.0" fill="none" stroke="none" stroke-linecap="square" stroke-miterlimit="10" width="460" height="285" xmlns:xlink="http://www.w3.org/1999/xlink" xmlns="http://www.w3.org/2000/svg"><path fill="#ffffff" d="M0 0L460.0 0L460.0 285.0L0 285.0L0 0Z" fill-rule="nonzero"/><path fill="#ffffff" d="M14.25 14.25L445.75 14.25L445.75 270.75L14.25 270.75L14.25 14.25Z" fill-rule="nonzero"/><path stroke="#cccccc" stroke-width="1.0" stroke-linecap="butt" d="M230.0 143.0C230.0 143.0 230.0 143.0 230.0 143.0C230.0 143.0 230.0 143.0 230.0 143.0C230.0 143.0 230.0 143.0 230.0 143.0C230.0 143.0 230.0 143.0 230.0 143.0" fill-rule="nonzero"/><path fill="#000000" d="M227.0625 136.35938Q227.0625 138.26562 226.40625 139.20312Q225.76562 140.125 224.375 140.125Q223.01562 140.125 222.35938 139.21875Q221.70312 138.3125 221.67188 136.5L221.67188 135.0625Q221.67188 133.17188 222.3125 132.26562Q222.96875 131.34375 224.35938 131.34375Q225.73438 131.34375 226.39062 132.23438Q227.04688 133.10938 227.0625 134.95312L227.0625 136.35938ZM225.96875 134.875Q225.96875 133.5 225.57812 132.875Q225.20312 132.23438 224.35938 132.23438Q223.53125 132.23438 223.14062 132.875Q222.76562 133.5 222.76562 134.79688L222.76562 136.53125Q222.76562 137.90625 223.15625 138.57812Q223.5625 139.23438 224.375 139.23438Q225.17188 139.23438 225.5625 138.60938Q225.95312 137.98438 225.96875 136.65625L225.96875 134.875Z" fill-rule="nonzero"/><path stroke="#cccccc" stroke-width="1.0" stroke-linecap="butt" d="M254.0625 143.0C254.0625 129.71065 243.28935 118.9375 230.0 118.9375C216.71065 118.9375 205.9375 129.71065 205.9375 143.0C205.9375 156.28935 216.71065 167.0625 230.0 167.0625C243.28935 167.0625 254.0625 156.28935 254.0625 143.0" fill-rule="nonzero"/><path fill="#000000" d="M227.29688 115.9375L221.70312 115.9375L221.70312 115.15625L224.65625 111.875Q225.3125 111.125 225.5625 110.671875Q225.8125 110.203125 225.8125 109.703125Q225.8125 109.03125 225.40625 108.609375Q225.01562 108.171875 224.32812 108.171875Q223.53125 108.171875 223.07812 108.640625Q222.625 109.09375 222.625 109.921875L221.54688 109.921875Q221.54688 108.734375 222.29688 108.015625Q223.0625 107.28125 224.32812 107.28125Q225.53125 107.28125 226.21875 107.90625Q226.90625 108.53125 226.90625 109.578125Q226.90625 110.828125 225.29688 112.578125L223.01562 115.046875L227.29688 115.046875L227.29688 115.9375Z" fill-rule="nonzero"/><path stroke="#cccccc" stroke-width="1.0" stroke-linecap="butt" d="M278.125 143.0C278.125 116.421295 256.5787 94.875 230.0 94.875C203.4213 94.875 181.875 116.421295 181.875 143.0C181.875 169.5787 203.4213 191.125 230.0 191.125C256.5787 191.125 278.125 169.5787 278.125 143.0" fill-rule="nonzero"/><path fill="#000000" d="M226.28125 89.015625L227.46875 89.015625L227.46875 89.890625L226.28125 89.890625L226.28125 91.875L225.20312 91.875L225.20312 89.890625L221.3125 89.890625L221.3125 89.25L225.125 83.34375L226.28125 83.34375L226.28125 89.015625ZM222.54688 89.015625L225.20312 89.015625L225.20312 84.828125L225.0625 85.0625L222.54688 89.015625Z" fill-rule="nonzero"/><path stroke="#cccccc" stroke-width="1.0" stroke-linecap="butt" d="M302.1875 143.0C302.1875 103.13194 269.86804 70.8125 230.0 70.8125C190.13194 70.8125 157.8125 103.13194 157.8125 143.0C157.8125 182.86806 190.13194 215.1875 230.0 215.1875C269.86804 215.1875 302.1875 182.86806 302.1875 143.0" fill-rule="nonzero"/><path fill="#000000" d="M225.96875 59.28125L225.96875 60.1875L225.76562 60.1875Q224.5 60.21875 223.75 60.953125Q223.0 61.671875 222.875 62.984375Q223.5625 62.21875 224.71875 62.21875Q225.82812 62.21875 226.5 63.0Q227.17188 63.78125 227.17188 65.03125Q227.17188 66.34375 226.45312 67.140625Q225.73438 67.9375 224.51562 67.9375Q223.29688 67.9375 222.53125 67.0Q221.78125 66.046875 221.78125 64.5625L221.78125 64.15625Q221.78125 61.796875 222.78125 60.546875Q223.78125 59.296875 225.76562 59.28125L225.96875 59.28125ZM224.54688 63.125Q223.98438 63.125 223.51562 63.453125Q223.04688 63.78125 222.85938 64.296875L222.85938 64.6875Q222.85938 65.75 223.32812 66.390625Q223.8125 67.03125 224.51562 67.03125Q225.25 67.03125 225.67188 66.5Q226.09375 65.953125 226.09375 65.078125Q226.09375 64.203125 225.67188 63.671875Q225.25 63.125 224.54688 63.125Z" fill-rule="nonzero"/><path stroke="#cccccc" stroke-width="1.0" stroke-linecap="butt" d="M326.25 143.0C326.25 89.84259 283.1574 46.75 230.0 46.75C176.84259 46.75 133.75 89.84259 133.75 143.0C133.75 196.15741 176.84259 239.25 230.0 239.25C283.1574 239.25 326.25 196.15741 326.25 143.0" fill-rule="nonzero"/><path fill="#000000" d="M226.89062 37.4375Q226.89062 38.078125 226.54688 38.578125Q226.20312 39.078125 225.64062 39.359375Q226.29688 39.640625 226.6875 40.203125Q227.07812 40.75 227.07812 41.453125Q227.07812 42.546875 226.32812 43.21875Q225.59375 43.875 224.375 43.875Q223.14062 43.875 222.39062 43.21875Q221.65625 42.546875 221.65625 41.453125Q221.65625 40.75 222.03125 40.203125Q222.40625 39.640625 223.07812 39.359375Q222.51562 39.078125 222.1875 38.578125Q221.85938 38.078125 221.85938 37.4375Q221.85938 36.359375 222.54688 35.734375Q223.23438 35.09375 224.375 35.09375Q225.5 35.09375 226.1875 35.734375Q226.89062 36.359375 226.89062 37.4375ZM226.0 41.421875Q226.0 40.703125 225.54688 40.265625Q225.09375 39.8125 224.35938 39.8125Q223.625 39.8125 223.17188 40.265625Q222.73438 40.703125 222.73438 41.4375Q222.73438 42.15625 223.17188 42.578125Q223.60938 42.984375 224.375 42.984375Q225.125 42.984375 225.5625 42.5625Q226.0 42.140625 226.0 41.421875ZM224.375 35.984375Q223.73438 35.984375 223.32812 36.390625Q222.9375 36.78125 222.9375 37.46875Q222.9375 38.109375 223.32812 38.515625Q223.71875 38.921875 224.35938 38.921875Q225.01562 38.921875 225.40625 38.515625Q225.79688 38.109375 225.79688 37.46875Q225.79688 36.8125 225.39062 36.40625Q224.98438 35.984375 224.375 35.984375Z" fill-rule="nonzero"/><path stroke="#cccccc" stroke-width="1.0" stroke-linecap="butt" d="M230.0 143.0L230.0 47.0" fill-rule="nonzero"/><path fill="#000000" d="M211.20312 24.265625L207.625 24.265625L206.82812 26.5L205.67188 26.5L208.92188 17.96875L209.90625 17.96875L213.17188 26.5L212.01562 26.5L211.20312 24.265625ZM207.96875 23.34375L210.875 23.34375L209.42188 19.359375L207.96875 23.34375ZM217.0 22.703125Q215.5625 22.28125 214.89062 21.671875Q214.23438 21.0625 214.23438 20.171875Q214.23438 19.171875 215.03125 18.515625Q215.84375 17.84375 217.14062 17.84375Q218.01562 17.84375 218.70312 18.1875Q219.39062 18.53125 219.76562 19.125Q220.15625 19.71875 220.15625 20.4375L219.01562 20.4375Q219.01562 19.65625 218.51562 19.21875Q218.03125 18.78125 217.14062 18.78125Q216.3125 18.78125 215.84375 19.15625Q215.375 19.515625 215.375 20.15625Q215.375 20.6875 215.8125 21.046875Q216.26562 21.40625 217.32812 21.703125Q218.39062 22.0 218.98438 22.359375Q219.59375 22.71875 219.875 23.203125Q220.17188 23.6875 220.17188 24.328125Q220.17188 25.375 219.35938 26.0Q218.54688 26.625 217.20312 26.625Q216.3125 26.625 215.54688 26.28125Q214.79688 25.9375 214.375 25.359375Q213.96875 24.765625 213.96875 24.03125L215.09375 24.03125Q215.09375 24.796875 215.67188 25.25Q216.25 25.703125 217.20312 25.703125Q218.09375 25.703125 218.5625 25.34375Q219.03125 24.96875 219.03125 24.34375Q219.03125 23.71875 218.59375 23.375Q218.15625 23.03125 217.0 22.703125ZM222.60938 23.15625L222.60938 26.5L221.48438 26.5L221.48438 17.96875L224.64062 17.96875Q226.03125 17.96875 226.82812 18.6875Q227.625 19.390625 227.625 20.578125Q227.625 21.8125 226.84375 22.484375Q226.07812 23.15625 224.625 23.15625L222.60938 23.15625ZM222.60938 22.234375L224.64062 22.234375Q225.54688 22.234375 226.01562 21.8125Q226.5 21.390625 226.5 20.59375Q226.5 19.828125 226.01562 19.375Q225.54688 18.90625 224.70312 18.890625L222.60938 18.890625L222.60938 22.234375ZM229.34375 25.9375Q229.34375 25.65625 229.5 25.46875Q229.67188 25.28125 230.0 25.28125Q230.34375 25.28125 230.51562 25.46875Q230.6875 25.65625 230.6875 25.9375Q230.6875 26.203125 230.51562 26.390625Q230.34375 26.5625 230.0 26.5625Q229.67188 26.5625 229.5 26.390625Q229.34375 26.203125 229.34375 25.9375ZM239.04688 26.5L237.92188 26.5L233.625 19.921875L233.625 26.5L232.48438 26.5L232.48438 17.96875L233.625 17.96875L237.92188 24.578125L237.92188 17.96875L239.04688 17.96875L239.04688 26.5ZM246.3125 22.5625L242.60938 22.5625L242.60938 25.578125L246.90625 25.578125L246.90625 26.5L241.48438 26.5L241.48438 17.96875L246.85938 17.96875L246.85938 18.890625L242.60938 18.890625L242.60938 21.640625L246.3125 21.640625L246.3125 22.5625ZM254.39062 18.890625L251.64062 18.890625L251.64062 26.5L250.53125 26.5L250.53125 18.890625L247.78125 18.890625L247.78125 17.96875L254.39062 17.96875L254.39062 18.890625Z" fill-rule="nonzero"/><path stroke="#cccccc" stroke-width="1.0" stroke-linecap="butt" d="M230.0 143.0L313.0 95.0" fill-rule="nonzero"/><path fill="#000000" d="M313.98438 87.5L313.98438 78.96875L316.40625 78.96875Q317.51562 78.96875 318.35938 79.46875Q319.21875 79.953125 319.6875 80.859375Q320.15625 81.765625 320.15625 82.953125L320.15625 83.484375Q320.15625 84.703125 319.6875 85.609375Q319.23438 86.515625 318.35938 87.0Q317.5 87.484375 316.35938 87.5L313.98438 87.5ZM315.10938 79.890625L315.10938 86.578125L316.29688 86.578125Q317.59375 86.578125 318.3125 85.78125Q319.04688 84.96875 319.04688 83.46875L319.04688 82.96875Q319.04688 81.515625 318.35938 80.71875Q317.6875 79.90625 316.42188 79.890625L315.10938 79.890625ZM324.45312 87.625Q323.15625 87.625 322.34375 86.78125Q321.54688 85.921875 321.54688 84.5L321.54688 84.3125Q321.54688 83.359375 321.90625 82.625Q322.26562 81.875 322.90625 81.46875Q323.5625 81.046875 324.3125 81.046875Q325.54688 81.046875 326.23438 81.859375Q326.92188 82.671875 326.92188 84.1875L326.92188 84.640625L322.625 84.640625Q322.65625 85.578125 323.17188 86.15625Q323.70312 86.734375 324.51562 86.734375Q325.07812 86.734375 325.46875 86.5Q325.875 86.265625 326.1875 85.875L326.84375 86.390625Q326.04688 87.625 324.45312 87.625ZM324.3125 81.9375Q323.65625 81.9375 323.20312 82.421875Q322.76562 82.890625 322.67188 83.75L325.84375 83.75L325.84375 83.671875Q325.79688 82.84375 325.39062 82.390625Q325.0 81.9375 324.3125 81.9375ZM331.51562 85.8125Q331.51562 85.375 331.17188 85.140625Q330.84375 84.890625 330.01562 84.71875Q329.20312 84.546875 328.71875 84.296875Q328.23438 84.046875 328.0 83.71875Q327.78125 83.375 327.78125 82.90625Q327.78125 82.125 328.4375 81.59375Q329.09375 81.046875 330.125 81.046875Q331.20312 81.046875 331.85938 81.609375Q332.53125 82.15625 332.53125 83.015625L331.45312 83.015625Q331.45312 82.578125 331.0625 82.265625Q330.6875 81.9375 330.125 81.9375Q329.53125 81.9375 329.1875 82.203125Q328.85938 82.453125 328.85938 82.859375Q328.85938 83.25 329.17188 83.453125Q329.48438 83.65625 330.29688 83.84375Q331.10938 84.015625 331.60938 84.265625Q332.10938 84.515625 332.34375 84.875Q332.59375 85.234375 332.59375 85.734375Q332.59375 86.59375 331.90625 87.109375Q331.23438 87.625 330.15625 87.625Q329.39062 87.625 328.79688 87.359375Q328.21875 87.078125 327.89062 86.59375Q327.5625 86.109375 327.5625 85.546875L328.64062 85.546875Q328.67188 86.09375 329.07812 86.421875Q329.48438 86.734375 330.15625 86.734375Q330.76562 86.734375 331.14062 86.484375Q331.51562 86.234375 331.51562 85.8125ZM335.59375 84.5625L334.90625 85.265625L334.90625 87.5L333.82812 87.5L333.82812 78.5L334.90625 78.5L334.90625 83.9375L335.48438 83.25L337.46875 81.15625L338.78125 81.15625L336.3125 83.8125L339.07812 87.5L337.79688 87.5L335.59375 84.5625ZM341.29688 79.625L341.29688 81.15625L342.46875 81.15625L342.46875 82.0L341.29688 82.0L341.29688 85.921875Q341.29688 86.3125 341.45312 86.5Q341.60938 86.6875 341.98438 86.6875Q342.17188 86.6875 342.5 86.625L342.5 87.5Q342.07812 87.625 341.67188 87.625Q340.95312 87.625 340.57812 87.1875Q340.20312 86.734375 340.20312 85.921875L340.20312 82.0L339.04688 82.0L339.04688 81.15625L340.20312 81.15625L340.20312 79.625L341.29688 79.625ZM343.53125 84.265625Q343.53125 83.34375 343.89062 82.59375Q344.26562 81.84375 344.92188 81.453125Q345.57812 81.046875 346.40625 81.046875Q347.70312 81.046875 348.5 81.9375Q349.3125 82.828125 349.3125 84.328125L349.3125 84.40625Q349.3125 85.328125 348.95312 86.0625Q348.59375 86.796875 347.9375 87.21875Q347.28125 87.625 346.42188 87.625Q345.14062 87.625 344.32812 86.734375Q343.53125 85.828125 343.53125 84.34375L343.53125 84.265625ZM344.625 84.40625Q344.625 85.453125 345.10938 86.09375Q345.60938 86.734375 346.42188 86.734375Q347.25 86.734375 347.73438 86.09375Q348.21875 85.4375 348.21875 84.265625Q348.21875 83.234375 347.71875 82.59375Q347.23438 81.9375 346.40625 81.9375Q345.60938 81.9375 345.10938 82.578125Q344.625 83.203125 344.625 84.40625ZM356.17188 84.40625Q356.17188 85.84375 355.51562 86.734375Q354.85938 87.625 353.71875 87.625Q352.5625 87.625 351.90625 86.890625L351.90625 89.9375L350.82812 89.9375L350.82812 81.15625L351.8125 81.15625L351.85938 81.859375Q352.53125 81.046875 353.70312 81.046875Q354.84375 81.046875 355.5 81.90625Q356.17188 82.765625 356.17188 84.296875L356.17188 84.40625ZM355.09375 84.28125Q355.09375 83.203125 354.625 82.59375Q354.17188 81.96875 353.375 81.96875Q352.39062 81.96875 351.90625 82.828125L351.90625 85.859375Q352.39062 86.734375 353.39062 86.734375Q354.17188 86.734375 354.625 86.125Q355.09375 85.5 355.09375 84.28125Z" fill-rule="nonzero"/><path stroke="#cccccc" stroke-width="1.0" stroke-linecap="butt" d="M230.0 143.0L313.0 191.0" fill-rule="nonzero"/><path fill="#000000" d="M310.0 203.70312Q308.5625 203.28125 307.89062 202.67188Q307.23438 202.0625 307.23438 201.17188Q307.23438 200.17188 308.03125 199.51562Q308.84375 198.84375 310.14062 198.84375Q311.01562 198.84375 311.70312 199.1875Q312.39062 199.53125 312.76562 200.125Q313.15625 200.71875 313.15625 201.4375L312.01562 201.4375Q312.01562 200.65625 311.51562 200.21875Q311.03125 199.78125 310.14062 199.78125Q309.3125 199.78125 308.84375 200.15625Q308.375 200.51562 308.375 201.15625Q308.375 201.6875 308.8125 202.04688Q309.26562 202.40625 310.32812 202.70312Q311.39062 203.0 311.98438 203.35938Q312.59375 203.71875 312.875 204.20312Q313.17188 204.6875 313.17188 205.32812Q313.17188 206.375 312.35938 207.0Q311.54688 207.625 310.20312 207.625Q309.3125 207.625 308.54688 207.28125Q307.79688 206.9375 307.375 206.35938Q306.96875 205.76562 306.96875 205.03125L308.09375 205.03125Q308.09375 205.79688 308.67188 206.25Q309.25 206.70312 310.20312 206.70312Q311.09375 206.70312 311.5625 206.34375Q312.03125 205.96875 312.03125 205.34375Q312.03125 204.71875 311.59375 204.375Q311.15625 204.03125 310.0 203.70312ZM321.0 203.51562Q321.0 204.75 320.60938 205.64062Q320.21875 206.53125 319.51562 207.03125L321.03125 208.23438L320.26562 208.9375L318.46875 207.51562Q318.04688 207.625 317.57812 207.625Q316.57812 207.625 315.79688 207.125Q315.01562 206.625 314.57812 205.71875Q314.15625 204.79688 314.14062 203.57812L314.14062 202.96875Q314.14062 201.73438 314.5625 200.79688Q315.0 199.85938 315.78125 199.35938Q316.5625 198.84375 317.5625 198.84375Q318.59375 198.84375 319.375 199.34375Q320.15625 199.84375 320.57812 200.78125Q321.0 201.71875 321.0 202.96875L321.0 203.51562ZM319.875 202.95312Q319.875 201.45312 319.28125 200.64062Q318.6875 199.8125 317.5625 199.8125Q316.5 199.8125 315.89062 200.625Q315.28125 201.4375 315.26562 202.875L315.26562 203.51562Q315.26562 204.96875 315.875 205.8125Q316.48438 206.65625 317.57812 206.65625Q318.67188 206.65625 319.26562 205.875Q319.85938 205.07812 319.875 203.59375L319.875 202.95312ZM323.625 206.57812L327.67188 206.57812L327.67188 207.5L322.48438 207.5L322.48438 198.96875L323.625 198.96875L323.625 206.57812ZM334.0 203.70312Q332.5625 203.28125 331.89062 202.67188Q331.23438 202.0625 331.23438 201.17188Q331.23438 200.17188 332.03125 199.51562Q332.84375 198.84375 334.14062 198.84375Q335.01562 198.84375 335.70312 199.1875Q336.39062 199.53125 336.76562 200.125Q337.15625 200.71875 337.15625 201.4375L336.01562 201.4375Q336.01562 200.65625 335.51562 200.21875Q335.03125 199.78125 334.14062 199.78125Q333.3125 199.78125 332.84375 200.15625Q332.375 200.51562 332.375 201.15625Q332.375 201.6875 332.8125 202.04688Q333.26562 202.40625 334.32812 202.70312Q335.39062 203.0 335.98438 203.35938Q336.59375 203.71875 336.875 204.20312Q337.17188 204.6875 337.17188 205.32812Q337.17188 206.375 336.35938 207.0Q335.54688 207.625 334.20312 207.625Q333.3125 207.625 332.54688 207.28125Q331.79688 206.9375 331.375 206.35938Q330.96875 205.76562 330.96875 205.03125L332.09375 205.03125Q332.09375 205.79688 332.67188 206.25Q333.25 206.70312 334.20312 206.70312Q335.09375 206.70312 335.5625 206.34375Q336.03125 205.96875 336.03125 205.34375Q336.03125 204.71875 335.59375 204.375Q335.15625 204.03125 334.0 203.70312ZM340.95312 207.625Q339.65625 207.625 338.84375 206.78125Q338.04688 205.92188 338.04688 204.5L338.04688 204.3125Q338.04688 203.35938 338.40625 202.625Q338.76562 201.875 339.40625 201.46875Q340.0625 201.04688 340.8125 201.04688Q342.04688 201.04688 342.73438 201.85938Q343.42188 202.67188 343.42188 204.1875L343.42188 204.64062L339.125 204.64062Q339.15625 205.57812 339.67188 206.15625Q340.20312 206.73438 341.01562 206.73438Q341.57812 206.73438 341.96875 206.5Q342.375 206.26562 342.6875 205.875L343.34375 206.39062Q342.54688 207.625 340.95312 207.625ZM340.8125 201.9375Q340.15625 201.9375 339.70312 202.42188Q339.26562 202.89062 339.17188 203.75L342.34375 203.75L342.34375 203.67188Q342.29688 202.84375 341.89062 202.39062Q341.5 201.9375 340.8125 201.9375ZM347.39062 202.125Q347.14062 202.09375 346.85938 202.09375Q345.78125 202.09375 345.40625 203.0L345.40625 207.5L344.32812 207.5L344.32812 201.15625L345.375 201.15625L345.39062 201.89062Q345.92188 201.04688 346.90625 201.04688Q347.21875 201.04688 347.39062 201.125L347.39062 202.125ZM350.40625 206.03125L351.98438 201.15625L353.09375 201.15625L350.8125 207.5L349.98438 207.5L347.6875 201.15625L348.79688 201.15625L350.40625 206.03125ZM356.95312 207.625Q355.65625 207.625 354.84375 206.78125Q354.04688 205.92188 354.04688 204.5L354.04688 204.3125Q354.04688 203.35938 354.40625 202.625Q354.76562 201.875 355.40625 201.46875Q356.0625 201.04688 356.8125 201.04688Q358.04688 201.04688 358.73438 201.85938Q359.42188 202.67188 359.42188 204.1875L359.42188 204.64062L355.125 204.64062Q355.15625 205.57812 355.67188 206.15625Q356.20312 206.73438 357.01562 206.73438Q357.57812 206.73438 357.96875 206.5Q358.375 206.26562 358.6875 205.875L359.34375 206.39062Q358.54688 207.625 356.95312 207.625ZM356.8125 201.9375Q356.15625 201.9375 355.70312 202.42188Q355.26562 202.89062 355.17188 203.75L358.34375 203.75L358.34375 203.67188Q358.29688 202.84375 357.89062 202.39062Q357.5 201.9375 356.8125 201.9375ZM363.39062 202.125Q363.14062 202.09375 362.85938 202.09375Q361.78125 202.09375 361.40625 203.0L361.40625 207.5L360.32812 207.5L360.32812 201.15625L361.375 201.15625L361.39062 201.89062Q361.92188 201.04688 362.90625 201.04688Q363.21875 201.04688 363.39062 201.125L363.39062 202.125Z" fill-rule="nonzero"/><path stroke="#cccccc" stroke-width="1.0" stroke-linecap="butt" d="M230.0 143.0L230.0 239.0" fill-rule="nonzero"/><path fill="#000000" d="M205.5625 259.96875L206.70312 259.96875L206.70312 266.01562Q206.70312 267.23438 205.95312 267.9375Q205.21875 268.625 204.0 268.625Q202.73438 268.625 202.01562 267.96875Q201.3125 267.3125 201.3125 266.14062L202.4375 266.14062Q202.4375 266.875 202.82812 267.29688Q203.23438 267.70312 204.0 267.70312Q204.70312 267.70312 205.125 267.26562Q205.5625 266.8125 205.5625 266.03125L205.5625 259.96875ZM212.73438 268.5Q212.64062 268.3125 212.57812 267.82812Q211.82812 268.625 210.78125 268.625Q209.84375 268.625 209.23438 268.09375Q208.64062 267.5625 208.64062 266.73438Q208.64062 265.75 209.39062 265.20312Q210.14062 264.65625 211.51562 264.65625L212.5625 264.65625L212.5625 264.15625Q212.5625 263.59375 212.21875 263.26562Q211.89062 262.92188 211.21875 262.92188Q210.64062 262.92188 210.25 263.21875Q209.85938 263.5 209.85938 263.92188L208.76562 263.92188Q208.76562 263.4375 209.09375 263.0Q209.4375 262.5625 210.01562 262.3125Q210.59375 262.04688 211.28125 262.04688Q212.39062 262.04688 213.0 262.59375Q213.625 263.14062 213.65625 264.09375L213.65625 267.01562Q213.65625 267.89062 213.875 268.40625L213.875 268.5L212.73438 268.5ZM210.9375 267.67188Q211.45312 267.67188 211.90625 267.40625Q212.35938 267.14062 212.5625 266.71875L212.5625 265.42188L211.71875 265.42188Q209.71875 265.42188 209.71875 266.59375Q209.71875 267.09375 210.0625 267.39062Q210.40625 267.67188 210.9375 267.67188ZM217.90625 267.03125L219.48438 262.15625L220.59375 262.15625L218.3125 268.5L217.48438 268.5L215.1875 262.15625L216.29688 262.15625L217.90625 267.03125ZM225.73438 268.5Q225.64062 268.3125 225.57812 267.82812Q224.82812 268.625 223.78125 268.625Q222.84375 268.625 222.23438 268.09375Q221.64062 267.5625 221.64062 266.73438Q221.64062 265.75 222.39062 265.20312Q223.14062 264.65625 224.51562 264.65625L225.5625 264.65625L225.5625 264.15625Q225.5625 263.59375 225.21875 263.26562Q224.89062 262.92188 224.21875 262.92188Q223.64062 262.92188 223.25 263.21875Q222.85938 263.5 222.85938 263.92188L221.76562 263.92188Q221.76562 263.4375 222.09375 263.0Q222.4375 262.5625 223.01562 262.3125Q223.59375 262.04688 224.28125 262.04688Q225.39062 262.04688 226.0 262.59375Q226.625 263.14062 226.65625 264.09375L226.65625 267.01562Q226.65625 267.89062 226.875 268.40625L226.875 268.5L225.73438 268.5ZM223.9375 267.67188Q224.45312 267.67188 224.90625 267.40625Q225.35938 267.14062 225.5625 266.71875L225.5625 265.42188L224.71875 265.42188Q222.71875 265.42188 222.71875 266.59375Q222.71875 267.09375 223.0625 267.39062Q223.40625 267.67188 223.9375 267.67188ZM231.5 264.70312Q230.0625 264.28125 229.39062 263.67188Q228.73438 263.0625 228.73438 262.17188Q228.73438 261.17188 229.53125 260.51562Q230.34375 259.84375 231.64062 259.84375Q232.51562 259.84375 233.20312 260.1875Q233.89062 260.53125 234.26562 261.125Q234.65625 261.71875 234.65625 262.4375L233.51562 262.4375Q233.51562 261.65625 233.01562 261.21875Q232.53125 260.78125 231.64062 260.78125Q230.8125 260.78125 230.34375 261.15625Q229.875 261.51562 229.875 262.15625Q229.875 262.6875 230.3125 263.04688Q230.76562 263.40625 231.82812 263.70312Q232.89062 264.0 233.48438 264.35938Q234.09375 264.71875 234.375 265.20312Q234.67188 265.6875 234.67188 266.32812Q234.67188 267.375 233.85938 268.0Q233.04688 268.625 231.70312 268.625Q230.8125 268.625 230.04688 268.28125Q229.29688 267.9375 228.875 267.35938Q228.46875 266.76562 228.46875 266.03125L229.59375 266.03125Q229.59375 266.79688 230.17188 267.25Q230.75 267.70312 231.70312 267.70312Q232.59375 267.70312 233.0625 267.34375Q233.53125 266.96875 233.53125 266.34375Q233.53125 265.71875 233.09375 265.375Q232.65625 265.03125 231.5 264.70312ZM238.35938 267.73438Q238.9375 267.73438 239.375 267.39062Q239.8125 267.03125 239.85938 266.5L240.89062 266.5Q240.85938 267.04688 240.5 267.54688Q240.15625 268.03125 239.57812 268.32812Q239.01562 268.625 238.35938 268.625Q237.0625 268.625 236.29688 267.76562Q235.54688 266.89062 235.54688 265.39062L235.54688 265.20312Q235.54688 264.28125 235.875 263.5625Q236.21875 262.84375 236.84375 262.45312Q237.48438 262.04688 238.35938 262.04688Q239.42188 262.04688 240.125 262.6875Q240.84375 263.3125 240.89062 264.34375L239.85938 264.34375Q239.8125 263.71875 239.39062 263.32812Q238.96875 262.9375 238.35938 262.9375Q237.53125 262.9375 237.07812 263.53125Q236.625 264.125 236.625 265.25L236.625 265.45312Q236.625 266.54688 237.07812 267.14062Q237.53125 267.73438 238.35938 267.73438ZM244.89062 263.125Q244.64062 263.09375 244.35938 263.09375Q243.28125 263.09375 242.90625 264.0L242.90625 268.5L241.82812 268.5L241.82812 262.15625L242.875 262.15625L242.89062 262.89062Q243.42188 262.04688 244.40625 262.04688Q244.71875 262.04688 244.89062 262.125L244.89062 263.125ZM247.0 268.5L245.92188 268.5L245.92188 262.15625L247.0 262.15625L247.0 268.5ZM245.82812 260.48438Q245.82812 260.21875 245.98438 260.03125Q246.15625 259.84375 246.46875 259.84375Q246.78125 259.84375 246.9375 260.03125Q247.10938 260.21875 247.10938 260.48438Q247.10938 260.73438 246.9375 260.92188Q246.78125 261.09375 246.46875 261.09375Q246.15625 261.09375 245.98438 260.92188Q245.82812 260.73438 245.82812 260.48438ZM254.17188 265.40625Q254.17188 266.84375 253.51562 267.73438Q252.85938 268.625 251.71875 268.625Q250.5625 268.625 249.90625 267.89062L249.90625 270.9375L248.82812 270.9375L248.82812 262.15625L249.8125 262.15625L249.85938 262.85938Q250.53125 262.04688 251.70312 262.04688Q252.84375 262.04688 253.5 262.90625Q254.17188 263.76562 254.17188 265.29688L254.17188 265.40625ZM253.09375 265.28125Q253.09375 264.20312 252.625 263.59375Q252.17188 262.96875 251.375 262.96875Q250.39062 262.96875 249.90625 263.82812L249.90625 266.85938Q250.39062 267.73438 251.39062 267.73438Q252.17188 267.73438 252.625 267.125Q253.09375 266.5 253.09375 265.28125ZM257.29688 260.625L257.29688 262.15625L258.46875 262.15625L258.46875 263.0L257.29688 263.0L257.29688 266.92188Q257.29688 267.3125 257.45312 267.5Q257.60938 267.6875 257.98438 267.6875Q258.17188 267.6875 258.5 267.625L258.5 268.5Q258.07812 268.625 257.67188 268.625Q256.95312 268.625 256.57812 268.1875Q256.20312 267.73438 256.20312 266.92188L256.20312 263.0L255.04688 263.0L255.04688 262.15625L256.20312 262.15625L256.20312 260.625L257.29688 260.625Z" fill-rule="nonzero"/><path stroke="#cccccc" stroke-width="1.0" stroke-linecap="butt" d="M230.0 143.0L147.0 191.0" fill-rule="nonzero"/><path fill="#000000" d="M121.265625 204.79688Q121.109375 206.14062 120.265625 206.89062Q119.421875 207.625 118.03125 207.625Q116.515625 207.625 115.609375 206.54688Q114.703125 205.45312 114.703125 203.625L114.703125 202.8125Q114.703125 201.625 115.125 200.71875Q115.546875 199.8125 116.328125 199.32812Q117.109375 198.84375 118.125 198.84375Q119.484375 198.84375 120.296875 199.60938Q121.125 200.375 121.265625 201.70312L120.140625 201.70312Q119.984375 200.6875 119.5 200.23438Q119.015625 199.78125 118.125 199.78125Q117.046875 199.78125 116.4375 200.57812Q115.828125 201.375 115.828125 202.84375L115.828125 203.67188Q115.828125 205.0625 116.40625 205.89062Q116.984375 206.70312 118.03125 206.70312Q118.96875 206.70312 119.46875 206.28125Q119.96875 205.84375 120.140625 204.79688L121.265625 204.79688ZM125.5 203.70312Q124.0625 203.28125 123.390625 202.67188Q122.734375 202.0625 122.734375 201.17188Q122.734375 200.17188 123.53125 199.51562Q124.34375 198.84375 125.640625 198.84375Q126.515625 198.84375 127.203125 199.1875Q127.890625 199.53125 128.26562 200.125Q128.65625 200.71875 128.65625 201.4375L127.515625 201.4375Q127.515625 200.65625 127.015625 200.21875Q126.53125 199.78125 125.640625 199.78125Q124.8125 199.78125 124.34375 200.15625Q123.875 200.51562 123.875 201.15625Q123.875 201.6875 124.3125 202.04688Q124.765625 202.40625 125.828125 202.70312Q126.890625 203.0 127.484375 203.35938Q128.09375 203.71875 128.375 204.20312Q128.67188 204.6875 128.67188 205.32812Q128.67188 206.375 127.859375 207.0Q127.046875 207.625 125.703125 207.625Q124.8125 207.625 124.046875 207.28125Q123.296875 206.9375 122.875 206.35938Q122.46875 205.76562 122.46875 205.03125L123.59375 205.03125Q123.59375 205.79688 124.171875 206.25Q124.75 206.70312 125.703125 206.70312Q126.59375 206.70312 127.0625 206.34375Q127.53125 205.96875 127.53125 205.34375Q127.53125 204.71875 127.09375 204.375Q126.65625 204.03125 125.5 203.70312ZM132.5 203.70312Q131.0625 203.28125 130.39062 202.67188Q129.73438 202.0625 129.73438 201.17188Q129.73438 200.17188 130.53125 199.51562Q131.34375 198.84375 132.64062 198.84375Q133.51562 198.84375 134.20312 199.1875Q134.89062 199.53125 135.26562 200.125Q135.65625 200.71875 135.65625 201.4375L134.51562 201.4375Q134.51562 200.65625 134.01562 200.21875Q133.53125 199.78125 132.64062 199.78125Q131.8125 199.78125 131.34375 200.15625Q130.875 200.51562 130.875 201.15625Q130.875 201.6875 131.3125 202.04688Q131.76562 202.40625 132.82812 202.70312Q133.89062 203.0 134.48438 203.35938Q135.09375 203.71875 135.375 204.20312Q135.67188 204.6875 135.67188 205.32812Q135.67188 206.375 134.85938 207.0Q134.04688 207.625 132.70312 207.625Q131.8125 207.625 131.04688 207.28125Q130.29688 206.9375 129.875 206.35938Q129.46875 205.76562 129.46875 205.03125L130.59375 205.03125Q130.59375 205.79688 131.17188 206.25Q131.75 206.70312 132.70312 206.70312Q133.59375 206.70312 134.0625 206.34375Q134.53125 205.96875 134.53125 205.34375Q134.53125 204.71875 134.09375 204.375Q133.65625 204.03125 132.5 203.70312Z" fill-rule="nonzero"/><path stroke="#cccccc" stroke-width="1.0" stroke-linecap="butt" d="M230.0 143.0L147.0 95.0" fill-rule="nonzero"/><path fill="#000000" d="M117.0 83.703125Q115.5625 83.28125 114.890625 82.671875Q114.234375 82.0625 114.234375 81.171875Q114.234375 80.171875 115.03125 79.515625Q115.84375 78.84375 117.140625 78.84375Q118.015625 78.84375 118.703125 79.1875Q119.390625 79.53125 119.765625 80.125Q120.15625 80.71875 120.15625 81.4375L119.015625 81.4375Q119.015625 80.65625 118.515625 80.21875Q118.03125 79.78125 117.140625 79.78125Q116.3125 79.78125 115.84375 80.15625Q115.375 80.515625 115.375 81.15625Q115.375 81.6875 115.8125 82.046875Q116.265625 82.40625 117.328125 82.703125Q118.390625 83.0 118.984375 83.359375Q119.59375 83.71875 119.875 84.203125Q120.171875 84.6875 120.171875 85.328125Q120.171875 86.375 119.359375 87.0Q118.546875 87.625 117.203125 87.625Q116.3125 87.625 115.546875 87.28125Q114.796875 86.9375 114.375 86.359375Q113.96875 85.765625 113.96875 85.03125L115.09375 85.03125Q115.09375 85.796875 115.671875 86.25Q116.25 86.703125 117.203125 86.703125Q118.09375 86.703125 118.5625 86.34375Q119.03125 85.96875 119.03125 85.34375Q119.03125 84.71875 118.59375 84.375Q118.15625 84.03125 117.0 83.703125ZM122.609375 84.15625L122.609375 87.5L121.484375 87.5L121.484375 78.96875L124.640625 78.96875Q126.03125 78.96875 126.828125 79.6875Q127.625 80.390625 127.625 81.578125Q127.625 82.8125 126.84375 83.484375Q126.078125 84.15625 124.625 84.15625L122.609375 84.15625ZM122.609375 83.234375L124.640625 83.234375Q125.546875 83.234375 126.015625 82.8125Q126.5 82.390625 126.5 81.59375Q126.5 80.828125 126.015625 80.375Q125.546875 79.90625 124.703125 79.890625L122.609375 79.890625L122.609375 83.234375ZM134.20312 85.265625L130.625 85.265625L129.82812 87.5L128.67188 87.5L131.92188 78.96875L132.90625 78.96875L136.17188 87.5L135.01562 87.5L134.20312 85.265625ZM130.96875 84.34375L133.875 84.34375L132.42188 80.359375L130.96875 84.34375Z" fill-rule="nonzero"/><path stroke="#cccccc" stroke-width="1.0" stroke-linecap="butt" d="M230.0 143.0L230.0 47.0" fill-rule="nonzero"/><path stroke="#4285f4" stroke-width="1.0" stroke-linecap="butt" d="M230.0 47.0C262.0 56.0 287.0 75.0 303.0 101.0C309.0 129.0 305.0 156.0 293.0 179.0C276.0 198.0 255.0 211.0 230.0 215.0C208.0 203.0 194.0 186.0 188.0 167.0C191.0 150.0 198.0 137.0 209.0 131.0C199.0 106.0 205.0 75.0 230.0 47.0Z" fill-rule="nonzero"/></svg>